<svg width="40" height="40" viewBox="0 0 40 40" fill="none" xmlns="http://www.w3.org/2000/svg">
<g clip-path="url(#clip0_381_6167)">
<circle cx="20" cy="20" r="20" fill="#D9D9D9"/>
<path d="M28 14.5C28.2761 14.5 28.5 14.2761 28.5 14C28.5 13.7239 28.2761 13.5 28 13.5V14V14.5ZM18.6464 27.3536C18.8417 27.5488 19.1583 27.5488 19.3536 27.3536L22.5355 24.1716C22.7308 23.9763 22.7308 23.6597 22.5355 23.4645C22.3403 23.2692 22.0237 23.2692 21.8284 23.4645L19 26.2929L16.1716 23.4645C15.9763 23.2692 15.6597 23.2692 15.4645 23.4645C15.2692 23.6597 15.2692 23.9763 15.4645 24.1716L18.6464 27.3536ZM28 14V13.5H26V14V14.5H28V14ZM19 21H18.5V27H19H19.5V21H19ZM26 14V13.5C21.8579 13.5 18.5 16.8579 18.5 21H19H19.5C19.5 17.4101 22.4101 14.5 26 14.5V14Z" fill="black" fill-opacity="0.34"/>
</g>
<defs>
<clipPath id="clip0_381_6167">
<rect width="40" height="40" fill="white"/>
</clipPath>
</defs>
</svg>
